
<svg width="100%" height="100%" viewBox="0 0 500 500" version="1.1" xmlns="http://www.w3.org/2000/svg" xmlns:xlink="http://www.w3.org/1999/xlink" xml:space="preserve" xmlns:serif="http://www.serif.com/" style="fill-rule:evenodd;clip-rule:evenodd;stroke-linejoin:round;stroke-miterlimit:2;">
    <g transform="matrix(2.56915,0,0,2.66851,-69.0745,-464.994)">
        <ellipse cx="124" cy="268.5" rx="94" ry="90.5" style="fill:rgb(129,170,98);"/>
    </g>
    <g transform="matrix(2.66851,0,0,2.66851,-84.0657,-370.259)">
        <g id="OBJECTS">
            <g>
                <g transform="matrix(1,0,0,1,174.612,176.854)">
                    <path d="M-15.555,120.405C-13.432,118.61 -11.456,116.65 -9.64,114.546C-19.96,103.419 -34.402,97.067 -49.611,97.067C-64.822,97.067 -79.264,103.418 -89.585,114.544C-87.768,116.648 -85.792,118.609 -83.67,120.404C-74.908,110.868 -62.634,105.446 -49.611,105.446C-36.588,105.446 -24.312,110.868 -15.555,120.405M-67.036,129.926C-61.576,131.84 -55.716,132.893 -49.611,132.893C-43.507,132.893 -37.646,131.84 -32.188,129.927C-37.118,125.974 -43.178,123.827 -49.611,123.827C-56.044,123.827 -62.104,125.974 -67.036,129.926M-52.111,118.93L-52.111,110.526C-62.639,111.158 -72.457,115.77 -79.681,123.465C-77.322,125.104 -74.828,126.56 -72.213,127.803C-66.68,122.576 -59.668,119.491 -52.111,118.93ZM-47.111,110.526L-47.111,118.93C-39.554,119.49 -32.543,122.576 -27.01,127.803C-24.395,126.56 -21.901,125.105 -19.543,123.465C-26.766,115.77 -36.583,111.158 -47.111,110.526ZM-16.723,60.043C-8.594,55.883 -2.229,49.013 1.347,40.722L-42.967,63.394C-40.183,64.014 -37.341,64.334 -34.466,64.334C-28.258,64.334 -22.288,62.891 -16.723,60.043M-56.257,63.393L-100.569,40.72C-96.993,49.014 -90.629,55.885 -82.5,60.043C-76.935,62.891 -70.966,64.334 -64.76,64.334C-61.885,64.334 -59.042,64.014 -56.257,63.393ZM-93.371,30.48L-102.438,20.659L-102.438,32.186C-99.477,31.299 -96.445,30.729 -93.371,30.48ZM-5.852,30.48C-2.777,30.73 0.254,31.3 3.215,32.187L3.215,20.656L-5.852,30.48M-27.174,39.618C-35.305,43.777 -41.67,50.648 -45.244,58.942L-0.927,36.269C-3.714,35.647 -6.558,35.326 -9.435,35.326C-15.641,35.326 -21.609,36.77 -27.174,39.618M-52.111,49.798L-52.111,0.022C-57.867,6.983 -61.086,15.778 -61.086,24.909C-61.086,34.042 -57.867,42.837 -52.111,49.798ZM-47.111,49.798C-41.355,42.837 -38.139,34.041 -38.139,24.909C-38.139,15.778 -41.355,6.983 -47.111,0.023L-47.111,49.798M-89.792,35.326C-92.667,35.326 -95.51,35.647 -98.295,36.267L-53.979,58.942C-57.555,50.648 -63.92,43.777 -72.049,39.618C-77.614,36.77 -83.584,35.326 -89.792,35.326M-49.611,-20.604C-70.983,-20.604 -88.371,-3.216 -88.371,18.156L-88.371,30.368C-81.875,30.574 -75.622,32.173 -69.771,35.166C-67.677,36.239 -65.686,37.47 -63.813,38.843C-65.3,34.393 -66.086,29.693 -66.086,24.909C-66.086,12.34 -60.687,0.333 -51.271,-8.032L-49.611,-9.507L-47.95,-8.032C-38.537,0.334 -33.139,12.341 -33.139,24.909C-33.139,29.693 -33.925,34.393 -35.412,38.843C-33.538,37.47 -31.547,36.238 -29.451,35.166C-23.6,32.172 -17.348,30.574 -10.852,30.368L-10.852,18.156C-10.852,-3.216 -28.239,-20.604 -49.611,-20.604M-92.713,110.553C-82.061,99.372 -67.527,92.782 -52.111,92.135L-52.111,83.749C-69.113,84.361 -84.946,91.184 -97.115,103.155C-95.85,105.748 -94.369,108.217 -92.713,110.553M-47.111,92.135C-31.696,92.782 -17.163,99.372 -6.512,110.555C-4.854,108.218 -3.374,105.749 -2.107,103.155C-14.277,91.184 -30.11,84.361 -47.111,83.749L-47.111,92.135" style="fill:rgb(246,246,246);fill-rule:nonzero;"/>
                </g>
                <g transform="matrix(0.8,0,0,1,31.4,-4)">
                    <path d="M113.25,246L109.5,246L107,261L113.25,261L113.25,246Z" style="fill:rgb(246,246,246);"/>
                </g>
                <g transform="matrix(0.8,0,0,1,41.4,-3)">
                    <path d="M110.75,245L107,245L107,260L113.25,260L110.75,245Z" style="fill:rgb(246,246,246);"/>
                </g>
            </g>
        </g>
    </g>
</svg>
